<mxfile host="app.diagrams.net" modified="2021-03-23T01:45:46.803Z" agent="5.0 (Windows NT 10.0; Win64; x64) AppleWebKit/537.36 (KHTML, like Gecko) Chrome/89.0.4389.90 Safari/537.36" etag="wU0gthsZH96cABjFxRJr" version="14.5.0" type="github" pages="2">
  <diagram id="Z9I3HItIMzRV4SYI8pXG" name="Page-1">
    <mxGraphModel dx="782" dy="445" grid="1" gridSize="10" guides="1" tooltips="1" connect="1" arrows="1" fold="1" page="1" pageScale="1" pageWidth="827" pageHeight="1169" math="0" shadow="0">
      <root>
        <mxCell id="2NIq1HPkZhXbguK2l04d-0" />
        <mxCell id="2NIq1HPkZhXbguK2l04d-1" parent="2NIq1HPkZhXbguK2l04d-0" />
      </root>
    </mxGraphModel>
  </diagram>
  <diagram id="hdb1QhX56bhDPCAvzV6t" name="Page-2">
    <mxGraphModel dx="782" dy="445" grid="1" gridSize="10" guides="1" tooltips="1" connect="1" arrows="1" fold="1" page="1" pageScale="1" pageWidth="827" pageHeight="1169" math="0" shadow="0">
      <root>
        <mxCell id="HTbKW6vL-zQmPiTwzFqD-0" />
        <mxCell id="HTbKW6vL-zQmPiTwzFqD-1" parent="HTbKW6vL-zQmPiTwzFqD-0" />
        <mxCell id="HTbKW6vL-zQmPiTwzFqD-4" value="Display&lt;br&gt;“Insert 2 number”" style="shape=parallelogram;html=1;strokeWidth=2;perimeter=parallelogramPerimeter;whiteSpace=wrap;rounded=1;arcSize=12;size=0.23;" vertex="1" parent="HTbKW6vL-zQmPiTwzFqD-1">
          <mxGeometry x="360" y="120" width="160" height="40" as="geometry" />
        </mxCell>
        <mxCell id="HTbKW6vL-zQmPiTwzFqD-5" value="Read num1, num2" style="shape=parallelogram;html=1;strokeWidth=2;perimeter=parallelogramPerimeter;whiteSpace=wrap;rounded=1;arcSize=12;size=0.23;" vertex="1" parent="HTbKW6vL-zQmPiTwzFqD-1">
          <mxGeometry x="360" y="200" width="160" height="40" as="geometry" />
        </mxCell>
        <mxCell id="HTbKW6vL-zQmPiTwzFqD-6" value="num1 = num2&lt;br&gt;num2 = num1" style="rounded=1;whiteSpace=wrap;html=1;absoluteArcSize=1;arcSize=14;strokeWidth=2;" vertex="1" parent="HTbKW6vL-zQmPiTwzFqD-1">
          <mxGeometry x="360" y="280" width="160" height="40" as="geometry" />
        </mxCell>
        <mxCell id="HTbKW6vL-zQmPiTwzFqD-7" value="Display num1, num2" style="shape=parallelogram;html=1;strokeWidth=2;perimeter=parallelogramPerimeter;whiteSpace=wrap;rounded=1;arcSize=12;size=0.23;" vertex="1" parent="HTbKW6vL-zQmPiTwzFqD-1">
          <mxGeometry x="360" y="360" width="160" height="40" as="geometry" />
        </mxCell>
        <mxCell id="HTbKW6vL-zQmPiTwzFqD-8" value="End" style="strokeWidth=2;html=1;shape=mxgraph.flowchart.terminator;whiteSpace=wrap;" vertex="1" parent="HTbKW6vL-zQmPiTwzFqD-1">
          <mxGeometry x="390" y="440" width="100" height="40" as="geometry" />
        </mxCell>
        <mxCell id="HTbKW6vL-zQmPiTwzFqD-10" value="Start" style="strokeWidth=2;html=1;shape=mxgraph.flowchart.terminator;whiteSpace=wrap;" vertex="1" parent="HTbKW6vL-zQmPiTwzFqD-1">
          <mxGeometry x="390" y="40" width="100" height="40" as="geometry" />
        </mxCell>
      </root>
    </mxGraphModel>
  </diagram>
</mxfile>
